# xmcd CD database file
#
# Track frame offsets:
#	182
#	16517
#	27537
#	43320
#	56395
#	71917
#	83722
#	98685
#	109347
#	132437
#	147802
#	159750
#	175627
#	187507
#	203845
#	219075
#
# Disc length: 3083 seconds
#
# Revision: 0
# Processed by: cddbd v1.4PL0 Copyright (c) Steve Scherf et al.
# Submitted via: CDex 1.50beta9
#
DISCID=ca0c0910
DTITLE=BRENDAN SHINE - EVERLASTING
DYEAR=1900
DGENRE=Country
TTITLE0=If Tomorrow Never Comes
TTITLE1=Some Broken Hearts Never Mend
TTITLE2=Dad
TTITLE3=Shoe The Donkey
TTITLE4=Lay Down Beside Me
TTITLE5=(There's) The Door
TTITLE6=Saints And Sinners
TTITLE7=Drive Me To Drink
TTITLE8=When Two Lovers Meet
TTITLE9=Rock 'N' roll Kids
TTITLE10=Not Counting You
TTITLE11=Squeeze Box
TTITLE12=Hello Darlin
TTITLE13=One More Chance
TTITLE14=When The Lovin Is Through
TTITLE15=Love bug
EXTD=
EXTT0=
EXTT1=
EXTT2=
EXTT3=
EXTT4=
EXTT5=
EXTT6=
EXTT7=
EXTT8=
EXTT9=
EXTT10=
EXTT11=
EXTT12=
EXTT13=
EXTT14=
EXTT15=
PLAYORDER=
